<svg xmlns="http://www.w3.org/2000/svg" viewBox="0 0 773 150">
    <g fill="#FFFFFF" fill-rule="evenodd">
        <path d="M41.696 91.024c-.336-.896-1.51-4.59-1.902-5.987-.56 2.294-1.287 4.7-1.736 5.987l-4.532 12.086h12.647l-4.477-12.086zm5.987 16.562H31.848l-4.756 12.366H22l15.611-40.12h4.532l15.556 40.12h-5.204l-4.812-12.366z"/>
        <path d="M72.244 93.82c-.504 7.61-3.134 16.62-7.05 21.99h13.708V93.82h-6.658zm11.414 21.99h4.364v14.549h-4.756v-10.407h-20.87v10.407h-4.7V115.81H60.1c5.148-7.106 7.666-16.618 7.778-25.85h15.78v25.85zM105.03 106.355H97.7v9.624h7.441c4.924 0 7.61-1.287 7.61-4.812 0-3.414-2.686-4.812-7.72-4.812m.334-12.31H97.7v8.225h6.77c4.868 0 7.442-1.287 7.442-4.141 0-2.797-1.958-4.084-6.547-4.084m5.54 9.959v.225c3.692.503 6.938 2.462 6.938 6.938 0 5.09-3.525 8.785-12.142 8.785H92.776V89.96h12.87c6.378 0 11.245 1.847 11.245 7.554 0 3.749-2.462 5.764-5.986 6.49M127.41 101.99h15.274c-.055-5.091-2.294-8.561-7.273-8.561-4.7 0-7.498 3.19-8.002 8.561m20.424.952v2.964h-20.535c.168 6.771 3.581 10.408 9.567 10.408 2.91 0 5.876-.558 8.226-1.454l1.398 3.692c-3.077 1.343-5.763 1.96-9.848 1.96-8.56 0-14.435-5.317-14.435-15.333 0-9.848 5.315-15.779 13.261-15.779 7.666 0 12.366 5.371 12.366 13.541M159.245 102.438h16.282V89.96h4.924v29.992h-4.924v-13.373h-16.282v13.373h-4.924V89.96h4.924zM199.752 94.1v25.852h-4.867V94.1h-9.681l1.568-4.141h22.772v4.14zM218.998 108.257c0 1.398-.224 5.315-.336 6.826l16.06-25.123h6.043v29.991h-4.589v-17.68c0-1.736.112-5.932.223-7.387l-15.946 25.067h-6.099v-29.99h4.644v18.296zM247.531 105.123c0-11.078 5.987-15.723 14.045-15.723 3.021 0 6.154.728 7.945 1.623l-1.567 4.084c-1.79-.67-4.42-1.398-6.49-1.398-5.988 0-8.84 3.86-8.84 11.358 0 7.218 2.91 11.191 8.56 11.191 2.518 0 4.7-.56 6.66-1.454l1.51 3.916c-1.679 1.063-4.7 1.791-8.114 1.791-8.002 0-13.709-4.756-13.709-15.388M285.857 94.1v25.852h-4.868V94.1h-9.68l1.567-4.141h22.773v4.14zM312.098 116.426c6.043 0 8.785-4.42 8.785-11.526 0-7.107-2.742-11.359-8.841-11.359-6.098 0-8.728 4.252-8.728 11.36 0 7.105 2.685 11.525 8.784 11.525m-.111 4.085c-7.947 0-13.765-5.65-13.765-15.61 0-9.905 5.315-15.5 13.933-15.5 8.113 0 13.82 5.595 13.82 15.5 0 9.96-5.428 15.61-13.988 15.61M344.885 106.355h-7.33v9.624h7.44c4.925 0 7.61-1.287 7.61-4.812 0-3.414-2.685-4.812-7.72-4.812m.335-12.31h-7.665v8.225h6.77c4.868 0 7.442-1.287 7.442-4.141 0-2.797-1.958-4.084-6.547-4.084m5.54 9.959v.225c3.692.503 6.938 2.462 6.938 6.938 0 5.09-3.525 8.785-12.142 8.785H332.63V89.96H345.5c6.379 0 11.246 1.847 11.246 7.554 0 3.749-2.462 5.764-5.986 6.49M363.795 79.496h1.119l1.287 3.47 1.286-3.47h1.12v4.421h-.784V80.504h-.055l-1.232 3.413h-.671l-1.231-3.413h-.056v3.413h-.783v-4.42zm-2.574.672h-1.287v-.672h3.413v.672h-1.343v3.75h-.783v-3.75zM391.041 99.976c0 9.904 4.588 16.115 13.765 16.115 3.469 0 7.721-.784 10.296-2.014l1.454 3.86c-4.476 2.07-7.442 2.574-12.478 2.574-12.254 0-18.352-8.001-18.352-20.591 0-12.086 6.826-20.48 19.192-20.48 4.084 0 7.665.673 10.686 2.183l-1.677 4.42c-2.463-1.12-5.485-2.181-9.066-2.181-8.56 0-13.82 6.098-13.82 16.114M424.835 101.99h15.275c-.056-5.091-2.294-8.561-7.274-8.561-4.7 0-7.498 3.19-8.001 8.561m20.423.952v2.964h-20.535c.168 6.771 3.581 10.408 9.568 10.408 2.909 0 5.875-.558 8.226-1.454l1.398 3.692c-3.077 1.343-5.764 1.96-9.848 1.96-8.561 0-14.436-5.317-14.436-15.333 0-9.848 5.315-15.779 13.261-15.779 7.666 0 12.366 5.371 12.366 13.541M462.602 93.82c-.504 7.61-3.134 16.62-7.051 21.99h13.709V93.82h-6.658zm11.414 21.99h4.364v14.549h-4.756v-10.407h-20.871v10.407h-4.7V115.81h2.406c5.148-7.106 7.666-16.618 7.778-25.85h15.779v25.85zM496.394 106.355h-8.337v9.624h8.448c4.142 0 7.22-1.343 7.22-4.924 0-3.637-2.743-4.7-7.33-4.7zm.56-4.085c7.777 0 11.695 2.854 11.695 8.505 0 5.596-3.637 9.177-11.918 9.177h-13.597V89.96h4.923v12.31h8.897zM547.422 119.952H543v-19.137c0-1.566.112-3.3.28-4.98h-.168l-9.792 24.117h-4.14l-9.513-24.116h-.167c.11 1.679.167 3.357.167 5.147v18.969h-4.42V89.96h6.547l9.456 24.116 9.624-24.116h6.547v29.99zM568.065 116.426c6.043 0 8.785-4.42 8.785-11.526 0-7.107-2.742-11.359-8.84-11.359-6.099 0-8.729 4.252-8.729 11.36 0 7.105 2.685 11.525 8.784 11.525m-.11 4.085c-7.948 0-13.766-5.65-13.766-15.61 0-9.905 5.315-15.5 13.933-15.5 8.113 0 13.82 5.595 13.82 15.5 0 9.96-5.428 15.61-13.988 15.61M606.895 94.1h-13.372v25.852h-4.925V89.96h18.298zM623.344 116.426c6.043 0 8.785-4.42 8.785-11.526 0-7.107-2.742-11.359-8.841-11.359-6.098 0-8.728 4.252-8.728 11.36 0 7.105 2.685 11.525 8.784 11.525m-.111 4.085c-7.947 0-13.765-5.65-13.765-15.61 0-9.905 5.315-15.5 13.933-15.5 8.113 0 13.82 5.595 13.82 15.5 0 9.96-5.428 15.61-13.988 15.61M670.845 84.532c-.615 8.674-4.868 22.83-9.568 30.943h18.632V84.532h-9.064zm14.044 30.943h5.092v14.996h-4.812v-10.52h-27.473v10.52h-4.812v-14.996h3.077c5.428-9.288 9.848-23.724 10.463-35.474h18.465v35.474zM699.77 102.438h16.283V89.96h4.923v29.992h-4.923v-13.373h-16.284v13.373h-4.923V89.96h4.923zM739.158 103.948h7.05v-9.902h-8c-4.589 0-6.38 2.012-6.38 4.81 0 3.47 2.685 5.093 7.33 5.093zm-13.652 16.004l8.56-12.59c-3.525-.84-6.994-3.246-6.994-8.56 0-5.708 4.196-8.842 10.631-8.842h13.43v29.992h-4.925v-11.919h-7.274l-7.72 11.919h-5.708z"/>
        <g>
            <path d="M52.44 20v35.474H32.464V20h-5.036v39.951h30.047v10.52h4.812V55.53h-4.868v-35.53zM70.621 41.99h15.275c-.056-5.092-2.294-8.562-7.274-8.562-4.7 0-7.498 3.19-8 8.563m20.422.95v2.965H70.51c.168 6.771 3.581 10.408 9.568 10.408 2.91 0 5.875-.559 8.226-1.455l1.398 3.693c-3.077 1.343-5.764 1.96-9.848 1.96-8.56 0-14.436-5.317-14.436-15.333 0-9.848 5.315-15.779 13.261-15.779 7.666 0 12.366 5.371 12.366 13.541M102.456 43.948v.951c0 7.386 2.015 11.527 8.562 11.527 5.426 0 8-4.869 8-11.582 0-6.827-2.574-11.303-8.113-11.303-6.098 0-8.337 3.414-8.449 10.408m21.654.95c0 10.24-4.924 15.611-12.366 15.611-4.643 0-7.554-2.014-9.288-4.364h-.336c.112 1.287.336 3.526.336 4.924v12.31h-4.924V29.96h4.028l.672 4.085h.224c1.791-2.575 4.477-4.645 9.345-4.645 7.385 0 12.31 5.148 12.31 15.5M153.93 29.96l-12.812 14.436 13.876 15.555h-5.708l-13.54-15.22v15.22h-4.923v-29.99h4.923v14.547L148.56 29.96zM170.38 56.426c6.043 0 8.784-4.42 8.784-11.526 0-7.107-2.741-11.359-8.841-11.359-6.098 0-8.728 4.252-8.728 11.36 0 7.105 2.685 11.525 8.785 11.525m-.112 4.085c-7.946 0-13.765-5.65-13.765-15.61 0-9.905 5.315-15.5 13.933-15.5 8.113 0 13.82 5.595 13.82 15.5 0 9.96-5.427 15.61-13.988 15.61M203.166 46.355h-7.33v9.624h7.442c4.924 0 7.61-1.287 7.61-4.812 0-3.414-2.686-4.812-7.722-4.812m.336-12.31h-7.666v8.225h6.77c4.869 0 7.443-1.287 7.443-4.141 0-2.797-1.959-4.084-6.547-4.084m5.539 9.959v.225c3.693.503 6.938 2.462 6.938 6.938 0 5.09-3.525 8.785-12.141 8.785h-12.926V29.96h12.869c6.379 0 11.247 1.847 11.247 7.554 0 3.749-2.462 5.764-5.987 6.49M235.281 46.355h-8.337v9.624h8.45c4.14 0 7.217-1.343 7.217-4.924 0-3.637-2.74-4.7-7.33-4.7zm.56-4.085c7.778 0 11.694 2.854 11.694 8.505 0 5.596-3.637 9.177-11.918 9.177H222.02V29.96h4.924v12.31h8.897zM289.664 59.952L279.09 42.606l-10.743 17.346h-5.316l13.261-20.814L263.87 20h5.596l9.792 15.667L289.104 20h5.317l-12.366 19.024 13.317 20.927zM304.154 43.948v.951c0 7.386 2.014 11.527 8.561 11.527 5.427 0 8.001-4.869 8.001-11.582 0-6.827-2.574-11.303-8.114-11.303-6.098 0-8.337 3.414-8.448 10.408m21.654.95c0 10.24-4.925 15.611-12.366 15.611-4.644 0-7.554-2.014-9.288-4.364h-.336c.111 1.287.336 3.526.336 4.924v12.31h-4.924V29.96h4.028l.671 4.085h.225c1.79-2.575 4.476-4.645 9.344-4.645 7.385 0 12.31 5.148 12.31 15.5M337.164 48.257c0 1.398-.225 5.315-.336 6.826l16.06-25.123h6.042v29.991h-4.588v-17.68c0-1.736.111-5.932.223-7.387l-15.947 25.067h-6.099v-29.99h4.645v18.296zM365.697 45.123c0-11.078 5.986-15.723 14.044-15.723 3.021 0 6.155.728 7.945 1.623l-1.566 4.084c-1.79-.67-4.42-1.398-6.49-1.398-5.988 0-8.84 3.86-8.84 11.358 0 7.218 2.908 11.191 8.56 11.191 2.517 0 4.7-.56 6.658-1.454l1.51 3.916c-1.678 1.063-4.7 1.791-8.113 1.791-8 0-13.708-4.756-13.708-15.388M404.022 34.1v25.852h-4.866V34.1h-9.682l1.569-4.141h22.772v4.14zM423.269 48.257c0 1.398-.224 5.315-.336 6.826l16.06-25.123h6.043v29.991h-4.59v-17.68c0-1.736.113-5.932.224-7.387l-15.946 25.067h-6.1v-29.99h4.645v18.296zM466.294 45.46c-7.498.28-9.904 2.405-9.904 6.21 0 3.357 2.238 4.868 5.484 4.868 5.035 0 8.84-2.742 8.84-8.56V45.29l-4.42.168zm9.288-5.932v20.423H472l-.951-4.253h-.224c-2.63 3.302-5.036 4.813-10.071 4.813-5.428 0-9.457-2.798-9.457-8.897 0-5.987 4.589-9.289 14.38-9.568l5.093-.168v-1.79c0-4.98-2.294-6.659-6.211-6.659-3.134 0-5.988 1.12-8.45 2.294l-1.51-3.693c2.63-1.399 6.322-2.574 10.239-2.574 7.274 0 10.743 3.078 10.743 10.072zM488.673 42.438h16.282V29.96h4.924v29.992h-4.924V46.579h-16.282v13.373h-4.924V29.96h4.924zM514.912 42.774h13.541l1.678 4.364h-13.54z"/>
        </g>
    </g>
</svg>
