<svg xmlns="http://www.w3.org/2000/svg" viewBox="0 0 954 181">
    <g fill="#FFFFFF" fill-rule="evenodd">
        <path d="M221.2 123.016c-.337-.896-1.512-4.59-1.903-5.987-.56 2.294-1.287 4.7-1.736 5.987l-4.532 12.086h12.647l-4.477-12.086zm5.986 16.562h-15.835l-4.756 12.366h-5.092l15.611-40.12h4.532l15.556 40.12h-5.204l-4.812-12.366z"/>
        <path d="M251.747 125.813c-.504 7.61-3.134 16.619-7.05 21.99h13.708v-21.99h-6.658zm11.414 21.99h4.364v14.548h-4.756v-10.407H241.9v10.407h-4.7v-14.548h2.405c5.148-7.106 7.666-16.618 7.778-25.85h15.78v25.85zM284.533 138.347h-7.33v9.624h7.441c4.924 0 7.61-1.287 7.61-4.812 0-3.414-2.686-4.812-7.72-4.812m.334-12.31h-7.665v8.225h6.77c4.868 0 7.442-1.287 7.442-4.141 0-2.797-1.958-4.084-6.547-4.084m5.54 9.959v.225c3.692.503 6.938 2.462 6.938 6.938 0 5.09-3.525 8.785-12.142 8.785H272.28v-29.992h12.87c6.378 0 11.245 1.847 11.245 7.554 0 3.749-2.462 5.764-5.986 6.49M306.912 133.982h15.275c-.055-5.092-2.294-8.562-7.273-8.562-4.7 0-7.498 3.19-8.002 8.562m20.424.951v2.965h-20.535c.168 6.771 3.581 10.408 9.567 10.408 2.91 0 5.876-.559 8.226-1.455l1.398 3.693c-3.077 1.343-5.763 1.96-9.848 1.96-8.56 0-14.435-5.317-14.435-15.333 0-9.848 5.315-15.779 13.261-15.779 7.666 0 12.366 5.371 12.366 13.541M338.748 134.43h16.282v-12.478h4.924v29.992h-4.924V138.57h-16.282v13.373h-4.924v-29.992h4.924zM379.255 126.093v25.85h-4.867v-25.85h-9.681l1.568-4.141h22.772v4.14zM398.501 140.25c0 1.397-.224 5.314-.336 6.825l16.06-25.123h6.043v29.991h-4.589v-17.68c0-1.736.112-5.932.223-7.387l-15.946 25.067h-6.099v-29.99h4.644v18.296zM427.034 137.115c0-11.078 5.987-15.723 14.045-15.723 3.021 0 6.154.728 7.945 1.623l-1.567 4.084c-1.79-.67-4.42-1.398-6.49-1.398-5.988 0-8.84 3.86-8.84 11.358 0 7.218 2.91 11.191 8.56 11.191 2.518 0 4.7-.56 6.66-1.454l1.51 3.916c-1.679 1.063-4.7 1.791-8.114 1.791-8.002 0-13.709-4.756-13.709-15.388M465.36 126.093v25.85h-4.868v-25.85h-9.68l1.567-4.141h22.773v4.14zM491.6 148.418c6.044 0 8.786-4.42 8.786-11.526 0-7.107-2.742-11.359-8.841-11.359-6.098 0-8.728 4.252-8.728 11.36 0 7.105 2.685 11.525 8.784 11.525m-.111 4.085c-7.947 0-13.765-5.65-13.765-15.61 0-9.905 5.315-15.5 13.933-15.5 8.113 0 13.82 5.595 13.82 15.5 0 9.96-5.428 15.61-13.988 15.61M524.388 138.347h-7.33v9.624h7.44c4.925 0 7.61-1.287 7.61-4.812 0-3.414-2.685-4.812-7.72-4.812m.335-12.31h-7.665v8.225h6.77c4.868 0 7.442-1.287 7.442-4.141 0-2.797-1.958-4.084-6.547-4.084m5.54 9.959v.225c3.692.503 6.938 2.462 6.938 6.938 0 5.09-3.525 8.785-12.142 8.785h-12.925v-29.992h12.869c6.379 0 11.246 1.847 11.246 7.554 0 3.749-2.462 5.764-5.986 6.49M543.298 111.488h1.119l1.287 3.47 1.286-3.47h1.12v4.421h-.784V112.496h-.055l-1.232 3.413h-.671l-1.231-3.413h-.056v3.413h-.783v-4.42zm-2.574.672h-1.287v-.672h3.413v.672h-1.343v3.75h-.783v-3.75zM570.544 131.968c0 9.904 4.588 16.115 13.765 16.115 3.47 0 7.721-.784 10.296-2.014l1.454 3.86c-4.476 2.07-7.442 2.574-12.478 2.574-12.254 0-18.352-8.001-18.352-20.591 0-12.086 6.826-20.48 19.192-20.48 4.084 0 7.665.673 10.686 2.183l-1.677 4.42c-2.463-1.12-5.485-2.181-9.066-2.181-8.56 0-13.82 6.098-13.82 16.114M604.338 133.982h15.275c-.056-5.092-2.294-8.562-7.274-8.562-4.7 0-7.498 3.19-8.001 8.562m20.423.951v2.965h-20.535c.168 6.771 3.581 10.408 9.568 10.408 2.909 0 5.875-.559 8.226-1.455l1.398 3.693c-3.077 1.343-5.764 1.96-9.848 1.96-8.561 0-14.436-5.317-14.436-15.333 0-9.848 5.315-15.779 13.261-15.779 7.666 0 12.366 5.371 12.366 13.541M642.105 125.813c-.504 7.61-3.134 16.619-7.051 21.99h13.709v-21.99h-6.658zm11.414 21.99h4.364v14.548h-4.756v-10.407h-20.871v10.407h-4.7v-14.548h2.406c5.148-7.106 7.666-16.618 7.778-25.85h15.779v25.85zM675.898 138.347h-8.337v9.624h8.448c4.14 0 7.219-1.343 7.219-4.924 0-3.637-2.742-4.7-7.33-4.7zm.56-4.085c7.777 0 11.694 2.854 11.694 8.505 0 5.596-3.637 9.177-11.918 9.177h-13.597v-29.992h4.924v12.31h8.897zM726.925 151.944h-4.421v-19.137c0-1.566.112-3.3.28-4.98h-.168l-9.792 24.117h-4.14l-9.513-24.116h-.167c.11 1.678.167 3.356.167 5.146v18.97h-4.42v-29.991h6.547l9.456 24.115 9.624-24.116h6.547v29.992zM747.568 148.418c6.043 0 8.786-4.42 8.786-11.526 0-7.107-2.743-11.359-8.841-11.359-6.099 0-8.729 4.252-8.729 11.36 0 7.105 2.686 11.525 8.784 11.525m-.11 4.085c-7.947 0-13.765-5.65-13.765-15.61 0-9.905 5.315-15.5 13.933-15.5 8.113 0 13.82 5.595 13.82 15.5 0 9.96-5.428 15.61-13.989 15.61M786.399 126.093h-13.373v25.85h-4.924v-29.991h18.297zM802.847 148.418c6.043 0 8.785-4.42 8.785-11.526 0-7.107-2.742-11.359-8.841-11.359-6.098 0-8.728 4.252-8.728 11.36 0 7.105 2.685 11.525 8.784 11.525m-.111 4.085c-7.947 0-13.765-5.65-13.765-15.61 0-9.905 5.315-15.5 13.933-15.5 8.113 0 13.82 5.595 13.82 15.5 0 9.96-5.428 15.61-13.988 15.61M850.348 116.524c-.615 8.673-4.868 22.83-9.568 30.942h18.632v-30.942h-9.064zm14.044 30.942h5.092v14.996h-4.812v-10.519h-27.473v10.52h-4.812v-14.997h3.077c5.428-9.288 9.848-23.724 10.463-35.474h18.465v35.474zM879.273 134.43h16.283v-12.478h4.924v29.992h-4.924V138.57h-16.283v13.373h-4.924v-29.992h4.924zM918.661 135.94h7.05v-9.903h-8c-4.589 0-6.38 2.013-6.38 4.811 0 3.47 2.685 5.092 7.33 5.092zm-13.652 16.003l8.56-12.59c-3.525-.839-6.994-3.245-6.994-8.56 0-5.707 4.196-8.84 10.631-8.84h13.43v29.99h-4.925v-11.918h-7.274l-7.72 11.918h-5.708z"/>
        <g>
            <path d="M241.79 102.463h-4.812v-10.52h-30.047V51.992h5.036v35.475h19.975V51.992h4.98v35.532h4.868zM250.124 73.983H265.4c-.056-5.093-2.294-8.563-7.274-8.563-4.7 0-7.498 3.19-8 8.563m20.422.95v2.965h-20.535c.168 6.772 3.581 10.409 9.568 10.409 2.91 0 5.875-.56 8.226-1.456l1.398 3.694c-3.077 1.343-5.764 1.959-9.848 1.959-8.56 0-14.436-5.317-14.436-15.333 0-9.848 5.315-15.778 13.261-15.778 7.666 0 12.366 5.37 12.366 13.54M281.96 75.94v.952c0 7.386 2.014 11.527 8.561 11.527 5.426 0 8-4.87 8-11.582 0-6.828-2.574-11.304-8.113-11.304-6.098 0-8.337 3.414-8.449 10.408m21.654.95c0 10.24-4.924 15.611-12.366 15.611-4.643 0-7.554-2.013-9.288-4.363h-.336c.112 1.286.336 3.525.336 4.923v12.31h-4.924v-43.42h4.028l.672 4.086h.224c1.791-2.576 4.477-4.646 9.345-4.646 7.385 0 12.31 5.148 12.31 15.5M333.434 61.952L320.62 76.388l13.876 15.555h-5.708l-13.54-15.22v15.22h-4.923v-29.99h4.923V76.5l12.814-14.548zM349.883 88.418c6.043 0 8.784-4.42 8.784-11.526 0-7.107-2.741-11.359-8.841-11.359-6.098 0-8.728 4.252-8.728 11.36 0 7.105 2.685 11.525 8.785 11.525m-.112 4.085c-7.946 0-13.765-5.65-13.765-15.61 0-9.905 5.315-15.5 13.933-15.5 8.113 0 13.82 5.595 13.82 15.5 0 9.96-5.427 15.61-13.988 15.61M382.67 78.347h-7.33v9.624h7.441c4.924 0 7.61-1.287 7.61-4.812 0-3.414-2.686-4.812-7.722-4.812m.336-12.31h-7.666v8.225h6.77c4.87 0 7.443-1.287 7.443-4.141 0-2.797-1.959-4.084-6.547-4.084m5.54 9.959v.225c3.692.503 6.937 2.462 6.937 6.938 0 5.09-3.525 8.785-12.14 8.785h-12.927V61.952h12.87c6.378 0 11.246 1.847 11.246 7.554 0 3.749-2.462 5.764-5.987 6.49M414.784 78.347h-8.337v9.624h8.45c4.14 0 7.217-1.343 7.217-4.924 0-3.637-2.74-4.7-7.33-4.7zm.56-4.085c7.778 0 11.694 2.854 11.694 8.505 0 5.596-3.637 9.177-11.918 9.177h-13.597V61.952h4.924v12.31h8.897zM469.167 91.944l-10.575-17.347-10.743 17.347h-5.316l13.261-20.815-12.422-19.136h5.596l9.792 15.667 9.847-15.667h5.317l-12.366 19.024 13.317 20.927zM483.657 75.94v.952c0 7.386 2.014 11.527 8.561 11.527 5.427 0 8.001-4.87 8.001-11.582 0-6.828-2.574-11.304-8.114-11.304-6.098 0-8.337 3.414-8.448 10.408m21.654.95c0 10.24-4.925 15.611-12.366 15.611-4.644 0-7.554-2.013-9.288-4.363h-.336c.111 1.286.336 3.525.336 4.923v12.31h-4.924v-43.42h4.028l.671 4.086h.225c1.79-2.576 4.476-4.646 9.344-4.646 7.385 0 12.31 5.148 12.31 15.5M516.667 80.25c0 1.397-.225 5.314-.336 6.825l16.06-25.123h6.042v29.991h-4.588v-17.68c0-1.736.111-5.932.223-7.387l-15.947 25.067h-6.099v-29.99h4.645v18.296zM545.2 77.115c0-11.078 5.986-15.723 14.044-15.723 3.021 0 6.155.728 7.945 1.623l-1.566 4.084c-1.79-.67-4.42-1.398-6.49-1.398-5.988 0-8.84 3.86-8.84 11.358 0 7.218 2.908 11.191 8.56 11.191 2.517 0 4.7-.56 6.658-1.454l1.51 3.916c-1.678 1.063-4.7 1.791-8.113 1.791-8 0-13.708-4.756-13.708-15.388M583.525 66.093v25.85h-4.867v-25.85h-9.68l1.567-4.141h22.772v4.14zM602.772 80.25c0 1.397-.224 5.314-.336 6.825l16.06-25.123h6.043v29.991h-4.59v-17.68c0-1.736.113-5.932.224-7.387l-15.946 25.067h-6.1v-29.99h4.645v18.296zM645.797 77.451c-7.498.28-9.904 2.406-9.904 6.211 0 3.357 2.238 4.868 5.484 4.868 5.035 0 8.84-2.742 8.84-8.56v-2.687l-4.42.168zm9.288-5.93v20.422h-3.581l-.951-4.253h-.224c-2.63 3.302-5.036 4.813-10.071 4.813-5.428 0-9.457-2.798-9.457-8.897 0-5.987 4.589-9.289 14.381-9.568l5.092-.168v-1.79c0-4.98-2.294-6.659-6.211-6.659-3.134 0-5.988 1.12-8.45 2.294l-1.51-3.693c2.63-1.399 6.322-2.574 10.239-2.574 7.274 0 10.743 3.078 10.743 10.072zM668.176 74.43h16.282V61.952h4.924v29.992h-4.924V78.57h-16.282v13.373h-4.924V61.952h4.924zM694.415 74.766h13.541l1.678 4.364h-13.54z"/>
        </g>
        <path d="M166.313 132.672h1.12l1.286 3.47 1.287-3.47h1.12v4.421h-.784v-3.414h-.056l-1.23 3.414h-.673l-1.23-3.414h-.057V137.093h-.783v-4.421zm-2.574.672h-1.287v-.672h3.413v.672h-1.343v3.749h-.783v-3.749zm-63.75 9.954c0 .541.62.543.732 0 .823-3.998 2.076-6.662 4.033-9.249l-4.4.002a.364.364 0 0 0-.365.364v8.883zm32.32-55.485c-.18-.585-.687-.623-.682-.011.05 5.779-1.612 10.745-12.16 21.294l-8.344 8.336c-3.797 3.797-7.21 7.265-9.229 10.73h8.24l.974-.975 11.97-11.982c9.97-9.969 11.36-20.514 9.231-27.392zm-11.187 35.249l-9.999 10.007c-6.052 6.053-11.134 11.268-11.134 16.971l.006 1.588c0 .431.536.499.701.048 1.868-5.106 8.112-10.556 19.564-8.624 0 0 49.89 8.621 50.31 8.658.487.043.728-.437.414-.811-.189-.224-23.22-23.254-23.22-23.254l-26.642-4.583zM85.03 134.049a.364.364 0 0 1-.364-.364v-5.162c0-.201.163-.364.364-.364l8.732.002a.364.364 0 0 0 .364-.364c-.023-4.637-3.519-7.788-17.523-5.35l-30.24 5.198s-23.032 23.03-23.22 23.254c-.315.374-.074.854.413.811.42-.037 50.31-8.658 50.31-8.658 11.452-1.932 17.696 3.518 19.564 8.624.165.451.702.383.702-.048l.001-17.215a.364.364 0 0 0-.364-.364H85.03zM71.09 61.897c-9.969 9.969-11.359 20.514-9.23 27.392.18.585.686.623.681.011-.05-5.779 1.612-10.746 12.161-21.294l22.74-22.733c6.052-6.053 11.134-11.268 11.134-16.971v-8.895c0-.541-.62-.543-.732 0-1.496 7.259-4.4 10.123-10.387 16.111L71.09 61.897zm37.508-17.973v-8.956c0-.541-.62-.543-.732 0-1.496 7.26-4.392 10.169-10.38 16.157L73.603 74.988c-11.59 11.59-13.596 22.808-7.7 30.016.392.48.815.192.558-.388-3.897-8.818 5.45-18.167 9.898-22.617l21.104-21.105c6.053-6.052 11.135-11.267 11.135-16.97zm-34.34 46.044c-11.59 11.592-6.26 22.787.5 25.868.593.271.828-.211.375-.604-5.422-4.696-3.776-12.597 3.042-19.414L97.44 76.553c6.053-6.052 11.134-11.267 11.134-16.97v-8.895c0-.541-.62-.543-.732 0-1.495 7.259-4.393 10.111-10.38 16.099L74.257 89.968zm25.71 28.813v8.955c0 .541.62.543.731 0 1.496-7.259 4.392-10.168 10.38-16.156l9.486-9.466c11.591-11.59 13.596-22.808 7.701-30.016-.393-.48-.816-.193-.559.387 3.897 8.818-5.449 18.168-9.898 22.618l-6.707 6.707c-6.053 6.053-11.135 11.268-11.135 16.971zm11.137-22.863c-5.988 5.988-8.886 8.84-10.38 16.099-.113.543-.733.541-.733 0v-8.895c0-5.703 5.081-10.918 11.134-16.971l4.867-4.867c6.818-6.818 8.464-14.718 3.042-19.415-.453-.392-.218-.874.376-.603 6.76 3.081 12.09 14.276.5 25.867l-8.806 8.785z"/>
    </g>
</svg>
